<mxfile host="app.diagrams.net" modified="2023-11-22T01:30:35.966Z" agent="Mozilla/5.0 (Windows NT 10.0; Win64; x64) AppleWebKit/537.36 (KHTML, like Gecko) Chrome/119.0.0.0 Safari/537.36 Edg/119.0.0.0" etag="-emseRFQfhMkuFpav-J_" version="22.1.3" type="github">
  <diagram name="第 1 页" id="A9GHN5dKYjBSqdBRHHC7">
    <mxGraphModel dx="1282" dy="535" grid="1" gridSize="10" guides="1" tooltips="1" connect="1" arrows="1" fold="1" page="1" pageScale="1" pageWidth="827" pageHeight="1169" math="0" shadow="0">
      <root>
        <mxCell id="0" />
        <mxCell id="1" parent="0" />
        <mxCell id="Y5jzzBSSJQIWwTxVtiOD-6" style="rounded=0;orthogonalLoop=1;jettySize=auto;html=1;exitX=0.5;exitY=1;exitDx=0;exitDy=0;" parent="1" source="Y5jzzBSSJQIWwTxVtiOD-1" target="Y5jzzBSSJQIWwTxVtiOD-5" edge="1">
          <mxGeometry relative="1" as="geometry" />
        </mxCell>
        <mxCell id="Y5jzzBSSJQIWwTxVtiOD-1" value="" style="image;aspect=fixed;perimeter=ellipsePerimeter;html=1;align=center;shadow=0;dashed=0;spacingTop=3;image=img/lib/active_directory/generic_server.svg;" parent="1" vertex="1">
          <mxGeometry x="140" y="70" width="44.8" height="80" as="geometry" />
        </mxCell>
        <mxCell id="Y5jzzBSSJQIWwTxVtiOD-7" style="edgeStyle=orthogonalEdgeStyle;rounded=0;orthogonalLoop=1;jettySize=auto;html=1;exitX=0.5;exitY=1;exitDx=0;exitDy=0;" parent="1" source="Y5jzzBSSJQIWwTxVtiOD-2" target="Y5jzzBSSJQIWwTxVtiOD-5" edge="1">
          <mxGeometry relative="1" as="geometry" />
        </mxCell>
        <mxCell id="Y5jzzBSSJQIWwTxVtiOD-2" value="" style="image;aspect=fixed;perimeter=ellipsePerimeter;html=1;align=center;shadow=0;dashed=0;spacingTop=3;image=img/lib/active_directory/generic_server.svg;" parent="1" vertex="1">
          <mxGeometry x="230" y="70" width="44.8" height="80" as="geometry" />
        </mxCell>
        <mxCell id="Y5jzzBSSJQIWwTxVtiOD-3" value="" style="image;aspect=fixed;perimeter=ellipsePerimeter;html=1;align=center;shadow=0;dashed=0;spacingTop=3;image=img/lib/active_directory/generic_server.svg;" parent="1" vertex="1">
          <mxGeometry x="330" y="70" width="44.8" height="80" as="geometry" />
        </mxCell>
        <mxCell id="Y5jzzBSSJQIWwTxVtiOD-4" value="" style="html=1;verticalLabelPosition=bottom;align=center;labelBackgroundColor=#ffffff;verticalAlign=top;strokeWidth=2;strokeColor=#0080F0;shadow=0;dashed=0;shape=mxgraph.ios7.icons.data;" parent="1" vertex="1">
          <mxGeometry x="240.4" y="300" width="24" height="29.099999999999998" as="geometry" />
        </mxCell>
        <mxCell id="Y5jzzBSSJQIWwTxVtiOD-9" value="" style="edgeStyle=orthogonalEdgeStyle;rounded=0;orthogonalLoop=1;jettySize=auto;html=1;" parent="1" source="Y5jzzBSSJQIWwTxVtiOD-5" target="Y5jzzBSSJQIWwTxVtiOD-4" edge="1">
          <mxGeometry relative="1" as="geometry" />
        </mxCell>
        <mxCell id="Y5jzzBSSJQIWwTxVtiOD-5" value="" style="html=1;verticalLabelPosition=bottom;align=center;labelBackgroundColor=#ffffff;verticalAlign=top;strokeWidth=2;strokeColor=#0080F0;shadow=0;dashed=0;shape=mxgraph.ios7.icons.locked;" parent="1" vertex="1">
          <mxGeometry x="241" y="240" width="24" height="30" as="geometry" />
        </mxCell>
        <mxCell id="Y5jzzBSSJQIWwTxVtiOD-8" style="rounded=0;orthogonalLoop=1;jettySize=auto;html=1;exitX=0.25;exitY=1;exitDx=0;exitDy=0;entryX=0.943;entryY=0.045;entryDx=0;entryDy=0;entryPerimeter=0;" parent="1" source="Y5jzzBSSJQIWwTxVtiOD-3" target="Y5jzzBSSJQIWwTxVtiOD-5" edge="1">
          <mxGeometry relative="1" as="geometry">
            <mxPoint x="270" y="240" as="targetPoint" />
          </mxGeometry>
        </mxCell>
        <mxCell id="Y5jzzBSSJQIWwTxVtiOD-11" value="lock" style="text;html=1;align=center;verticalAlign=middle;resizable=0;points=[];autosize=1;strokeColor=none;fillColor=none;" parent="1" vertex="1">
          <mxGeometry x="264.4" y="250" width="40" height="30" as="geometry" />
        </mxCell>
        <mxCell id="Y5jzzBSSJQIWwTxVtiOD-12" value="&lt;font style=&quot;font-size: 10px;&quot;&gt;服务器1&lt;/font&gt;" style="text;html=1;align=center;verticalAlign=middle;resizable=0;points=[];autosize=1;strokeColor=none;fillColor=none;" parent="1" vertex="1">
          <mxGeometry x="132.4" y="50" width="60" height="30" as="geometry" />
        </mxCell>
        <mxCell id="Y5jzzBSSJQIWwTxVtiOD-13" value="&lt;font style=&quot;font-size: 10px;&quot;&gt;服务器2&lt;/font&gt;" style="text;html=1;align=center;verticalAlign=middle;resizable=0;points=[];autosize=1;strokeColor=none;fillColor=none;" parent="1" vertex="1">
          <mxGeometry x="223.00000000000003" y="50" width="60" height="30" as="geometry" />
        </mxCell>
        <mxCell id="Y5jzzBSSJQIWwTxVtiOD-14" value="&lt;font style=&quot;font-size: 10px;&quot;&gt;服务器3&lt;/font&gt;" style="text;html=1;align=center;verticalAlign=middle;resizable=0;points=[];autosize=1;strokeColor=none;fillColor=none;" parent="1" vertex="1">
          <mxGeometry x="320" y="50" width="60" height="30" as="geometry" />
        </mxCell>
        <mxCell id="Y5jzzBSSJQIWwTxVtiOD-15" value="数据库" style="text;html=1;align=center;verticalAlign=middle;resizable=0;points=[];autosize=1;strokeColor=none;fillColor=none;" parent="1" vertex="1">
          <mxGeometry x="254.4" y="300" width="60" height="30" as="geometry" />
        </mxCell>
      </root>
    </mxGraphModel>
  </diagram>
</mxfile>
